<svg version="1.1" xmlns="http://www.w3.org/2000/svg" viewBox="-302.07999963760375 -1029.1200439453125 4174.847998046875 1341.4400390625" width="150" height="48">
  <desc>ACPatt Logo</desc>
  <defs>
  </defs>
  <g>
    <rect x="-302.07999963760375" y="-1029.1200439453125" width="4174.847998046875" height="1341.4400390625" fill="#deb8bd" style=""></rect>
    <g>
      <g transform="matrix(1.024,0,0,-1.024,0,0)">
        <path d="M645 0L555 197L149 197L60 0L5 0L327 700L378 700L700 0L645 0ZM169 240L536 240L352 644L169 240ZM1123 -5Q1020 -5 937 41Q855 87 807 168Q760 249 760 350Q760 451 807 532Q855 613 937 659Q1020 705 1123 705Q1199 705 1263 680Q1327 656 1372 608L1340 575Q1256 658 1125 658Q1037 658 965 618Q893 578 852 507Q811 437 811 350Q811 263 852 192Q893 122 965 82Q1037 42 1125 42Q1255 42 1340 126L1372 93Q1327 45 1262 20Q1198 -5 1123 -5ZM1794 700Q1926 700 2001 637Q2076 575 2076 464Q2076 354 2001 291Q1926 229 1794 229L1594 229L1594 0L1543 0L1543 700L1794 700ZM1794 275Q1906 275 1965 324Q2024 373 2024 464Q2024 555 1965 604Q1906 654 1794 654L1594 654L1594 275L1794 275ZM2418 526Q2515 526 2567 476Q2619 427 2619 331L2619 0L2571 0L2571 93Q2546 47 2498 21Q2450 -4 2383 -4Q2296 -4 2245 37Q2195 78 2195 145Q2195 210 2241 250Q2288 291 2390 291L2569 291L2569 333Q2569 406 2529 444Q2490 482 2414 482Q2362 482 2314 464Q2267 446 2234 416L2209 452Q2248 487 2303 506Q2358 526 2418 526ZM2390 37Q2455 37 2500 67Q2546 97 2569 154L2569 252L2391 252Q2314 252 2279 224Q2245 196 2245 147Q2245 96 2283 66Q2321 37 2390 37ZM3063 68L3084 33Q3065 15 3036 5Q3008 -4 2977 -4Q2909 -4 2872 33Q2835 71 2835 138L2835 479L2739 479L2739 522L2835 522L2835 636L2885 636L2885 522L3051 522L3051 479L2885 479L2885 143Q2885 92 2909 65Q2934 39 2982 39Q3031 39 3063 68ZM3461 68L3482 33Q3463 15 3434 5Q3406 -4 3375 -4Q3307 -4 3270 33Q3233 71 3233 138L3233 479L3137 479L3137 522L3233 522L3233 636L3283 636L3283 522L3449 522L3449 479L3283 479L3283 143Q3283 92 3307 65Q3332 39 3380 39Q3429 39 3461 68Z" fill="#183329" style="">
        </path>
      </g>
    </g>
  </g>
</svg>